<mxfile host="Electron" modified="2023-12-30T11:50:52.250Z" agent="Mozilla/5.0 (Windows NT 10.0; Win64; x64) AppleWebKit/537.36 (KHTML, like Gecko) draw.io/21.2.8 Chrome/112.0.5615.165 Electron/24.2.0 Safari/537.36" etag="wKehmAQmT91R-qFpNgef" version="21.2.8" type="device">
  <diagram name="Page-1" id="Kmdgu98OoKlLJSyVilDJ">
    <mxGraphModel dx="1108" dy="653" grid="1" gridSize="10" guides="1" tooltips="1" connect="1" arrows="1" fold="1" page="1" pageScale="1" pageWidth="827" pageHeight="1169" math="0" shadow="0">
      <root>
        <mxCell id="0" />
        <mxCell id="1" parent="0" />
        <mxCell id="PINS8w4IaUrpaLpqZbmu-27" value="&lt;b&gt;&lt;font style=&quot;font-size: 16px;&quot; face=&quot;Verdana&quot;&gt;Collection&lt;/font&gt;&lt;/b&gt;" style="rounded=1;whiteSpace=wrap;html=1;fillColor=#fff2cc;gradientColor=#ffd966;strokeColor=#12110c;" vertex="1" parent="1">
          <mxGeometry x="420" y="400" width="150" height="50" as="geometry" />
        </mxCell>
        <mxCell id="PINS8w4IaUrpaLpqZbmu-28" value="&lt;b&gt;&lt;font style=&quot;font-size: 16px;&quot; face=&quot;Verdana&quot;&gt;List&lt;/font&gt;&lt;/b&gt;" style="rounded=1;whiteSpace=wrap;html=1;fillColor=#dae8fc;gradientColor=#7ea6e0;strokeColor=#000000;" vertex="1" parent="1">
          <mxGeometry x="260" y="500" width="80" height="50" as="geometry" />
        </mxCell>
        <mxCell id="PINS8w4IaUrpaLpqZbmu-29" value="&lt;b&gt;&lt;font style=&quot;font-size: 16px;&quot; face=&quot;Verdana&quot;&gt;Set&lt;/font&gt;&lt;/b&gt;" style="rounded=1;whiteSpace=wrap;html=1;fillColor=#dae8fc;gradientColor=#7ea6e0;strokeColor=#020203;" vertex="1" parent="1">
          <mxGeometry x="630" y="500" width="80" height="50" as="geometry" />
        </mxCell>
        <mxCell id="PINS8w4IaUrpaLpqZbmu-30" value="" style="endArrow=classic;html=1;rounded=0;exitX=0.5;exitY=0;exitDx=0;exitDy=0;entryX=0.5;entryY=1;entryDx=0;entryDy=0;" edge="1" parent="1" source="PINS8w4IaUrpaLpqZbmu-28" target="PINS8w4IaUrpaLpqZbmu-27">
          <mxGeometry width="50" height="50" relative="1" as="geometry">
            <mxPoint x="630" y="530" as="sourcePoint" />
            <mxPoint x="680" y="480" as="targetPoint" />
          </mxGeometry>
        </mxCell>
        <mxCell id="PINS8w4IaUrpaLpqZbmu-31" value="" style="endArrow=classic;html=1;rounded=0;exitX=0.5;exitY=0;exitDx=0;exitDy=0;entryX=0.5;entryY=1;entryDx=0;entryDy=0;" edge="1" parent="1" source="PINS8w4IaUrpaLpqZbmu-29" target="PINS8w4IaUrpaLpqZbmu-27">
          <mxGeometry width="50" height="50" relative="1" as="geometry">
            <mxPoint x="630" y="530" as="sourcePoint" />
            <mxPoint x="680" y="480" as="targetPoint" />
          </mxGeometry>
        </mxCell>
        <mxCell id="PINS8w4IaUrpaLpqZbmu-32" value="&lt;b&gt;&lt;font style=&quot;font-size: 16px;&quot; face=&quot;Verdana&quot;&gt;Vector&lt;/font&gt;&lt;/b&gt;" style="rounded=0;whiteSpace=wrap;html=1;fillColor=#f8cecc;gradientColor=#ea6b66;strokeColor=#000000;" vertex="1" parent="1">
          <mxGeometry x="150" y="620" width="90" height="40" as="geometry" />
        </mxCell>
        <mxCell id="PINS8w4IaUrpaLpqZbmu-33" value="&lt;b&gt;&lt;font style=&quot;font-size: 16px;&quot; face=&quot;Verdana&quot;&gt;ArrayList&lt;/font&gt;&lt;/b&gt;" style="rounded=0;whiteSpace=wrap;html=1;fillColor=#f8cecc;gradientColor=#ea6b66;strokeColor=#000000;" vertex="1" parent="1">
          <mxGeometry x="250" y="620" width="100" height="40" as="geometry" />
        </mxCell>
        <mxCell id="PINS8w4IaUrpaLpqZbmu-34" value="&lt;b&gt;&lt;font style=&quot;font-size: 16px;&quot; face=&quot;Verdana&quot;&gt;LinkedList&lt;/font&gt;&lt;/b&gt;" style="rounded=0;whiteSpace=wrap;html=1;fillColor=#f8cecc;gradientColor=#ea6b66;strokeColor=#000000;" vertex="1" parent="1">
          <mxGeometry x="370" y="620" width="110" height="40" as="geometry" />
        </mxCell>
        <mxCell id="PINS8w4IaUrpaLpqZbmu-35" value="" style="endArrow=classic;html=1;rounded=0;exitX=0.5;exitY=0;exitDx=0;exitDy=0;entryX=0.5;entryY=1;entryDx=0;entryDy=0;dashed=1;" edge="1" parent="1" source="PINS8w4IaUrpaLpqZbmu-32" target="PINS8w4IaUrpaLpqZbmu-28">
          <mxGeometry width="50" height="50" relative="1" as="geometry">
            <mxPoint x="630" y="520" as="sourcePoint" />
            <mxPoint x="680" y="470" as="targetPoint" />
          </mxGeometry>
        </mxCell>
        <mxCell id="PINS8w4IaUrpaLpqZbmu-36" value="" style="endArrow=classic;html=1;rounded=0;exitX=0.5;exitY=0;exitDx=0;exitDy=0;entryX=0.5;entryY=1;entryDx=0;entryDy=0;dashed=1;" edge="1" parent="1" source="PINS8w4IaUrpaLpqZbmu-33" target="PINS8w4IaUrpaLpqZbmu-28">
          <mxGeometry width="50" height="50" relative="1" as="geometry">
            <mxPoint x="630" y="520" as="sourcePoint" />
            <mxPoint x="680" y="470" as="targetPoint" />
          </mxGeometry>
        </mxCell>
        <mxCell id="PINS8w4IaUrpaLpqZbmu-37" value="" style="endArrow=classic;html=1;rounded=0;exitX=0.5;exitY=0;exitDx=0;exitDy=0;dashed=1;" edge="1" parent="1" source="PINS8w4IaUrpaLpqZbmu-34">
          <mxGeometry width="50" height="50" relative="1" as="geometry">
            <mxPoint x="630" y="520" as="sourcePoint" />
            <mxPoint x="300" y="550" as="targetPoint" />
          </mxGeometry>
        </mxCell>
        <mxCell id="PINS8w4IaUrpaLpqZbmu-39" value="&lt;b&gt;&lt;font style=&quot;font-size: 16px;&quot; face=&quot;Verdana&quot;&gt;SortedSet&lt;/font&gt;&lt;/b&gt;" style="rounded=1;whiteSpace=wrap;html=1;fillColor=#f8cecc;gradientColor=#ea6b66;strokeColor=#000000;" vertex="1" parent="1">
          <mxGeometry x="520" y="620" width="110" height="40" as="geometry" />
        </mxCell>
        <mxCell id="PINS8w4IaUrpaLpqZbmu-40" value="" style="endArrow=classic;html=1;rounded=0;exitX=0.5;exitY=0;exitDx=0;exitDy=0;entryX=0.5;entryY=1;entryDx=0;entryDy=0;" edge="1" parent="1" source="PINS8w4IaUrpaLpqZbmu-39" target="PINS8w4IaUrpaLpqZbmu-29">
          <mxGeometry width="50" height="50" relative="1" as="geometry">
            <mxPoint x="630" y="520" as="sourcePoint" />
            <mxPoint x="680" y="470" as="targetPoint" />
          </mxGeometry>
        </mxCell>
        <mxCell id="PINS8w4IaUrpaLpqZbmu-41" value="&lt;font face=&quot;Verdana&quot;&gt;&lt;span style=&quot;font-size: 16px;&quot;&gt;&lt;b&gt;HashSet&lt;/b&gt;&lt;/span&gt;&lt;/font&gt;" style="rounded=0;whiteSpace=wrap;html=1;fillColor=#f8cecc;gradientColor=#ea6b66;strokeColor=#000000;" vertex="1" parent="1">
          <mxGeometry x="710" y="620" width="100" height="40" as="geometry" />
        </mxCell>
        <mxCell id="PINS8w4IaUrpaLpqZbmu-42" value="" style="endArrow=classic;html=1;rounded=0;exitX=0.5;exitY=0;exitDx=0;exitDy=0;entryX=0.5;entryY=1;entryDx=0;entryDy=0;dashed=1;" edge="1" parent="1" source="PINS8w4IaUrpaLpqZbmu-41" target="PINS8w4IaUrpaLpqZbmu-29">
          <mxGeometry width="50" height="50" relative="1" as="geometry">
            <mxPoint x="630" y="520" as="sourcePoint" />
            <mxPoint x="660" y="550" as="targetPoint" />
          </mxGeometry>
        </mxCell>
        <mxCell id="PINS8w4IaUrpaLpqZbmu-45" style="edgeStyle=orthogonalEdgeStyle;rounded=0;orthogonalLoop=1;jettySize=auto;html=1;exitX=0.5;exitY=0;exitDx=0;exitDy=0;entryX=0.5;entryY=1;entryDx=0;entryDy=0;" edge="1" parent="1" target="PINS8w4IaUrpaLpqZbmu-41">
          <mxGeometry relative="1" as="geometry">
            <mxPoint x="760" y="710" as="sourcePoint" />
          </mxGeometry>
        </mxCell>
        <mxCell id="PINS8w4IaUrpaLpqZbmu-44" value="&lt;b&gt;&lt;font style=&quot;font-size: 16px;&quot; face=&quot;Verdana&quot;&gt;LinkedHashSet&lt;/font&gt;&lt;/b&gt;" style="rounded=0;whiteSpace=wrap;html=1;fillColor=#e6d0de;gradientColor=#d5739d;strokeColor=#000000;" vertex="1" parent="1">
          <mxGeometry x="680.5" y="710" width="159" height="40" as="geometry" />
        </mxCell>
        <mxCell id="PINS8w4IaUrpaLpqZbmu-49" style="edgeStyle=orthogonalEdgeStyle;rounded=0;orthogonalLoop=1;jettySize=auto;html=1;exitX=0.5;exitY=0;exitDx=0;exitDy=0;entryX=0.5;entryY=1;entryDx=0;entryDy=0;" edge="1" parent="1" source="PINS8w4IaUrpaLpqZbmu-47" target="PINS8w4IaUrpaLpqZbmu-39">
          <mxGeometry relative="1" as="geometry" />
        </mxCell>
        <mxCell id="PINS8w4IaUrpaLpqZbmu-47" value="&lt;b&gt;&lt;font style=&quot;font-size: 16px;&quot; face=&quot;Verdana&quot;&gt;NavigableSet&lt;/font&gt;&lt;/b&gt;" style="rounded=1;whiteSpace=wrap;html=1;fillColor=#e6d0de;gradientColor=#d5739d;strokeColor=#262124;" vertex="1" parent="1">
          <mxGeometry x="500" y="710" width="150" height="40" as="geometry" />
        </mxCell>
        <mxCell id="PINS8w4IaUrpaLpqZbmu-51" style="edgeStyle=orthogonalEdgeStyle;rounded=0;orthogonalLoop=1;jettySize=auto;html=1;exitX=0.5;exitY=0;exitDx=0;exitDy=0;entryX=0.5;entryY=1;entryDx=0;entryDy=0;" edge="1" parent="1" source="PINS8w4IaUrpaLpqZbmu-50" target="PINS8w4IaUrpaLpqZbmu-47">
          <mxGeometry relative="1" as="geometry" />
        </mxCell>
        <mxCell id="PINS8w4IaUrpaLpqZbmu-50" value="&lt;b&gt;&lt;font style=&quot;font-size: 16px;&quot; face=&quot;Verdana&quot;&gt;TreeSet&lt;/font&gt;&lt;/b&gt;" style="rounded=0;whiteSpace=wrap;html=1;fillColor=#d5e8d4;gradientColor=#97d077;strokeColor=#000000;" vertex="1" parent="1">
          <mxGeometry x="520" y="790" width="110" height="40" as="geometry" />
        </mxCell>
      </root>
    </mxGraphModel>
  </diagram>
</mxfile>
